<?xml version="1.0"?>
<svg xmlns="http://www.w3.org/2000/svg" xmlns:xlink="http://www.w3.org/1999/xlink" xmlns:ev="http://www.w3.org/2001/xml-events" version="1.1" baseProfile="full" viewBox="200 212.5 262 241">
	<g>
		<g>
			<path fill="none" d=" M446,450 L446,333" stroke="#000000" />
		</g>
		<g>
			<path fill="none" d=" M216,333 L216,216" stroke="#000000" />
		</g>
		<g>
			<path fill="none" d=" M446,216 L446,333" stroke="#000000" />
		</g>
		<g>
			<path fill="none" d=" M446,216 L216,216" stroke="#000000" />
		</g>
		<g>
			<path fill="none" d=" M216,450 L446,450" stroke="#000000" />
		</g>
		<g>
			<path fill="none" d=" M216,450 L216,333" stroke="#000000" />
		</g>
	</g>
	<g>
		<rect x="431" y="318" width="30" height="30" />
		<text x="421" y="358" text-anchor="middle" dominant-baseline="middle" font-family="Arial" font-size="10" fill="#000000">V1</text>
	</g>
	<g>
		<rect x="213.5" y="213.5" width="5" height="5" />
		<text x="241" y="241" text-anchor="middle" dominant-baseline="middle" font-family="Arial" font-size="10" fill="#000000">vdd</text>
	</g>
	<g>
		<rect x="443.5" y="447.5" width="5" height="5" />
		<text x="421" y="425" text-anchor="middle" dominant-baseline="middle" font-family="Arial" font-size="10" fill="#000000">0</text>
	</g>
	<g>
		<rect x="201" y="318" width="30" height="30" />
		<text x="241" y="358" text-anchor="middle" dominant-baseline="middle" font-family="Arial" font-size="10" fill="#000000">R1</text>
	</g>
	<g>
		<rect x="443.5" y="213.5" width="5" height="5" />
		<text x="421" y="241" text-anchor="middle" dominant-baseline="middle" font-family="Arial" font-size="10" fill="#000000">n4</text>
	</g>
	<g>
		<rect x="213.5" y="447.5" width="5" height="5" />
		<text x="241" y="425" text-anchor="middle" dominant-baseline="middle" font-family="Arial" font-size="10" fill="#000000">n5</text>
	</g>
</svg>
