<?xml version="1.0"?>
<svg
    xmlns="http://www.w3.org/2000/svg"
    xmlns:xlink="http://www.w3.org/1999/xlink"
    xmlns:ev="http://www.w3.org/2001/xml-events"
    version="1.1"
    baseProfile="full"
    viewBox="176 176 310 314">
    <style>
        .vert { font-size: 16; fill: #000000; dominant-baseline: middle }
        .hori { font-size: 16; fill: #000000; text-anchor: middle }
    </style>
    <defs>
        <marker id="arrowhead" markerWidth="8" markerHeight="8" refX="0" refY="4" orient="auto">
        <polygon points="0 0, 4 4, 0 8" />
        </marker>
    </defs>
    <g>
        <g>
            <path fill="none" d="M 446 450 L 446 333" stroke="#000000" />
        </g>
        <g>
            <path fill="none" d="M 216 333 L 216 216" stroke="#000000" />
        </g>
        <g>
            <path fill="none" d="M 446 216 L 446 333" stroke="#000000" />
        </g>
        <g>
            <path fill="none" d="M 446 216 L 216 216" stroke="#000000" />
        </g>
        <g>
            <path fill="none" d="M 216 450 L 446 450" stroke="#000000" />
        </g>
        <g>
            <path fill="none" d="M 216 450 L 216 333" stroke="#000000" />
        </g>
    </g>
    <g>
        <circle cx="446" cy="333" r="15" style="fill:#ffffff;stroke:#000000;stroke-width:1" />
        <line x1="446" y1="341" x2="446" y2="325" stroke="#000000" stroke-width="1" marker-end="url(#arrowhead)" />
        <text x="466" y="333" class="vert">V1</text>
    </g>
    <g>
        <path d="M 446,450 h 20 v 20" style="fill:#ffffff;stroke:#000000;stroke-width:1" />
        <path d="M 466,470 h 10 l -10,10 l -10,-10 h 10" style="fill:#000000;stroke:#000000;stroke-width:1" />
    </g>
    <g>
        <circle cx="446" cy="450" r="2" style="fill:#000000" />
    </g>
    <g>
        <rect x="206" y="313" width="20" height="40" style="fill:#ffffff;stroke:#000000;stroke-width:1" />
        <text x="231" y="333" class="vert">R1</text>
    </g>
</svg>