<?xml version="1.0"?>
<svg
    xmlns="http://www.w3.org/2000/svg"
    xmlns:xlink="http://www.w3.org/1999/xlink"
    xmlns:ev="http://www.w3.org/2001/xml-events"
    version="1.1"
    baseProfile="full"
    viewBox="186 186 1224 294">
    <defs>
        <marker id="arrowhead" markerWidth="8" markerHeight="8" refX="0" refY="4" orient="auto">
        <polygon points="0 0, 4 4, 0 8" />
        </marker>
    </defs>
    <g>
        <g>
            <path fill="none" d="M 1380 450 L 1380 333" stroke="#000000" />
        </g>
        <g>
            <path fill="none" d="M 916 216 L 1150 216" stroke="#000000" />
        </g>
        <g>
            <path fill="none" d="M 683 216 L 916 216" stroke="#000000" />
        </g>
        <g>
            <path fill="none" d="M 449 216 L 683 216" stroke="#000000" />
        </g>
        <g>
            <path fill="none" d="M 216 216 L 449 216" stroke="#000000" />
        </g>
        <g>
            <path fill="none" d="M 798 450 L 1380 450" stroke="#000000" />
        </g>
        <g>
            <path fill="none" d="M 1380 216 L 1380 333" stroke="#000000" />
        </g>
        <g>
            <path fill="none" d="M 1380 216 L 1150 216" stroke="#000000" />
        </g>
        <g>
            <path fill="none" d="M 216 450 L 216 216" stroke="#000000" />
        </g>
        <g>
            <path fill="none" d="M 216 450 L 798 450" stroke="#000000" />
        </g>
    </g>
    <g>
        <circle cx="1380" cy="333" r="15" style="fill:#ffffff;stroke:#000000;stroke-width:1" />
        <line x1="1380" y1="341" x2="1380" y2="325" stroke="#000000" stroke-width="1" marker-end="url(#arrowhead)" />
    </g>
    <g>
        <rect x="896" y="206" width="40" height="20" style="fill:#ffffff;stroke:#000000;stroke-width:1" />
    </g>
    <g>
        <rect x="444" y="206" width="10" height="20" style="fill:#ffffff" />
        <line x1="444" y1="206" x2="444" y2="226" stroke="#000000" stroke-width="1" />
        <line x1="454" y1="206" x2="454" y2="226" stroke="#000000" stroke-width="1" />
    </g>
</svg>