<?xml version="1.0"?>
<svg xmlns="http://www.w3.org/2000/svg" xmlns:xlink="http://www.w3.org/1999/xlink" xmlns:ev="http://www.w3.org/2001/xml-events" version="1.1" baseProfile="full" viewBox="212.5 200 1183.5 266">
	<g>
		<g>
			<path fill="none" d=" M1380,450 L1380,333" stroke="#000000" />
		</g>
		<g>
			<path fill="none" d=" M916,216 L1150,216" stroke="#000000" />
		</g>
		<g>
			<path fill="none" d=" M683,216 L916,216" stroke="#000000" />
		</g>
		<g>
			<path fill="none" d=" M449,216 L683,216" stroke="#000000" />
		</g>
		<g>
			<path fill="none" d=" M216,216 L449,216" stroke="#000000" />
		</g>
		<g>
			<path fill="none" d=" M798,450 L1380,450" stroke="#000000" />
		</g>
		<g>
			<path fill="none" d=" M1380,216 L1380,333" stroke="#000000" />
		</g>
		<g>
			<path fill="none" d=" M1380,216 L1150,216" stroke="#000000" />
		</g>
		<g>
			<path fill="none" d=" M216,450 L216,216" stroke="#000000" />
		</g>
		<g>
			<path fill="none" d=" M216,450 L798,450" stroke="#000000" />
		</g>
	</g>
	<g>
		<rect x="1365" y="318" width="30" height="30" />
		<text x="1355" y="358" text-anchor="middle" dominant-baseline="middle" font-family="Arial" font-size="10" fill="#000000">V1</text>
	</g>
	<g>
		<rect x="1147.5" y="213.5" width="5" height="5" />
		<text x="1175" y="241" text-anchor="middle" dominant-baseline="middle" font-family="Arial" font-size="10" fill="#000000">r</text>
	</g>
	<g>
		<rect x="1377.5" y="447.5" width="5" height="5" />
		<text x="1355" y="425" text-anchor="middle" dominant-baseline="middle" font-family="Arial" font-size="10" fill="#000000">0</text>
	</g>
	<g>
		<rect x="901" y="201" width="30" height="30" />
		<text x="941" y="241" text-anchor="middle" dominant-baseline="middle" font-family="Arial" font-size="10" fill="#000000">R1</text>
	</g>
	<g>
		<rect x="680.5" y="213.5" width="5" height="5" />
		<text x="708" y="241" text-anchor="middle" dominant-baseline="middle" font-family="Arial" font-size="10" fill="#000000">c</text>
	</g>
	<g>
		<rect x="434" y="201" width="30" height="30" />
		<text x="474" y="241" text-anchor="middle" dominant-baseline="middle" font-family="Arial" font-size="10" fill="#000000">C1</text>
	</g>
	<g>
		<rect x="213.5" y="213.5" width="5" height="5" />
		<text x="241" y="241" text-anchor="middle" dominant-baseline="middle" font-family="Arial" font-size="10" fill="#000000">l</text>
	</g>
	<g>
		<rect x="783" y="435" width="30" height="30" />
		<text x="823" y="425" text-anchor="middle" dominant-baseline="middle" font-family="Arial" font-size="10" fill="#000000">L1</text>
	</g>
	<g>
		<rect x="1377.5" y="213.5" width="5" height="5" />
		<text x="1355" y="241" text-anchor="middle" dominant-baseline="middle" font-family="Arial" font-size="10" fill="#000000">n8</text>
	</g>
	<g>
		<rect x="213.5" y="447.5" width="5" height="5" />
		<text x="241" y="425" text-anchor="middle" dominant-baseline="middle" font-family="Arial" font-size="10" fill="#000000">n9</text>
	</g>
</svg>
