<?xml version="1.0"?>
<svg
    xmlns="http://www.w3.org/2000/svg"
    xmlns:xlink="http://www.w3.org/1999/xlink"
    xmlns:ev="http://www.w3.org/2001/xml-events"
    version="1.1"
    baseProfile="full"
    viewBox="46 46 454 264">
    <style>
        .vert { font-size: 16; fill: #000000; dominant-baseline: middle }
        .hori { font-size: 16; fill: #000000; text-anchor: middle }
    </style>
    <defs>
        <marker id="arrowhead" markerWidth="8" markerHeight="8" refX="0" refY="4" orient="auto">
        <polygon points="0 0, 4 4, 0 8" />
        </marker>
    </defs>
    <g>
        <g>
            <path fill="none" d="M 273 178 L 366 178" stroke="#000000" />
        </g>
        <g>
            <path fill="none" d="M 460 178 L 366 178" stroke="#000000" />
        </g>
        <g>
            <path fill="none" d="M 180 270 L 180 224" stroke="#000000" />
        </g>
        <g>
            <path fill="none" d="M 86 86 L 86 178" stroke="#000000" />
        </g>
        <g>
            <path fill="none" d="M 273 86 L 86 86" stroke="#000000" />
        </g>
        <g>
            <path fill="none" d="M 320 270 L 180 270" stroke="#000000" />
        </g>
        <g>
            <path fill="none" d="M 180 178 L 273 178" stroke="#000000" />
        </g>
        <g>
            <path fill="none" d="M 180 178 L 180 224" stroke="#000000" />
        </g>
        <g>
            <path fill="none" d="M 86 270 L 180 270" stroke="#000000" />
        </g>
        <g>
            <path fill="none" d="M 86 270 L 86 178" stroke="#000000" />
        </g>
        <g>
            <path fill="none" d="M 460 86 L 460 178" stroke="#000000" />
        </g>
        <g>
            <path fill="none" d="M 460 86 L 273 86" stroke="#000000" />
        </g>
        <g>
            <path fill="none" d="M 460 270 L 460 178" stroke="#000000" />
        </g>
        <g>
            <path fill="none" d="M 460 270 L 320 270" stroke="#000000" />
        </g>
    </g>
    <g>
        <circle cx="366" cy="178" r="18" style="fill:#ffffff;stroke:#000000;stroke-width:1" />
        <circle cx="366" cy="178" r="0" style="fill:#ffffff;stroke:#000000;stroke-width:1" />
        <line x1="374" y1="178" x2="358" y2="178" stroke="#000000" stroke-width="1" marker-end="url(#arrowhead)" />
        <text x="366" y="155" class="hori">V1</text>
        <text x="366" y="212" class="hori">1</text>
    </g>
    <g>
        <path d="M 460,178 h 20 v 20" style="fill:#ffffff;stroke:#000000;stroke-width:1" />
        <path d="M 480,198 h 10 l -10,10 l -10,-10 h 10" style="fill:#000000;stroke:#000000;stroke-width:1" />
    </g>
    <g>
        <circle cx="460" cy="178" r="2" style="fill:#000000" />
    </g>
    <g>
        <rect x="170" y="204" width="20" height="40" style="fill:#ffffff;stroke:#000000;stroke-width:1" />
        <text x="195" y="224" class="vert">R1</text>
        <text x="195" y="240" class="vert">10k</text>
    </g>
    <g>
        <circle cx="180" cy="270" r="2" style="fill:#000000" />
    </g>
    <g>
        <rect x="76" y="173" width="20" height="10" style="fill:#ffffff" />
        <line x1="76" y1="173" x2="96" y2="173" stroke="#000000" stroke-width="1" />
        <line x1="76" y1="183" x2="96" y2="183" stroke="#000000" stroke-width="1" />
        <text x="101" y="178" class="vert">C1</text>
        <text x="101" y="194" class="vert">10n</text>
    </g>
    <g>
        <rect x="255" y="82" width="36" height="12" style="fill:#ffffff" />
        <path d="M 255,86 C 259,94 263,94 267,86 C 271,94 275,94 279,86 C 283,94 287,94 291,86 " style="fill:#ffffff;stroke:#000000;stroke-width:1" />
        <text x="273" y="81" class="hori">L1</text>
        <text x="273" y="107" class="hori">5.3</text>
    </g>
    <g>
        <rect x="315" y="260" width="10" height="20" style="fill:#ffffff" />
        <line x1="315" y1="260" x2="315" y2="280" stroke="#000000" stroke-width="1" />
        <line x1="325" y1="260" x2="325" y2="280" stroke="#000000" stroke-width="1" />
        <text x="320" y="255" class="hori">C2</text>
        <text x="320" y="301" class="hori">20n</text>
    </g>
</svg>