<?xml version="1.0"?>
<svg
    xmlns="http://www.w3.org/2000/svg"
    xmlns:xlink="http://www.w3.org/1999/xlink"
    xmlns:ev="http://www.w3.org/2001/xml-events"
    version="1.1"
    baseProfile="full"
    viewBox="186 186 994 520">
    <defs>
        <marker id="arrowhead" markerWidth="8" markerHeight="8" refX="0" refY="4" orient="auto">
        <polygon points="0 0, 4 4, 0 8" />
        </marker>
    </defs>
    <g>
        <g>
            <path fill="none" d="M 683 446 L 916 446" stroke="#000000" />
        </g>
        <g>
            <path fill="none" d="M 1150 446 L 916 446" stroke="#000000" />
        </g>
        <g>
            <path fill="none" d="M 566 446 L 683 446" stroke="#000000" />
        </g>
        <g>
            <path fill="none" d="M 216 216 L 216 446" stroke="#000000" />
        </g>
        <g>
            <path fill="none" d="M 683 216 L 216 216" stroke="#000000" />
        </g>
        <g>
            <path fill="none" d="M 800 676 L 450 676" stroke="#000000" />
        </g>
        <g>
            <path fill="none" d="M 450 446 L 566 446" stroke="#000000" />
        </g>
        <g>
            <path fill="none" d="M 450 446 L 450 676" stroke="#000000" />
        </g>
        <g>
            <path fill="none" d="M 216 676 L 450 676" stroke="#000000" />
        </g>
        <g>
            <path fill="none" d="M 216 676 L 216 446" stroke="#000000" />
        </g>
        <g>
            <path fill="none" d="M 1150 216 L 1150 446" stroke="#000000" />
        </g>
        <g>
            <path fill="none" d="M 1150 216 L 683 216" stroke="#000000" />
        </g>
        <g>
            <path fill="none" d="M 1150 676 L 1150 446" stroke="#000000" />
        </g>
        <g>
            <path fill="none" d="M 1150 676 L 800 676" stroke="#000000" />
        </g>
    </g>
    <g>
        <circle cx="916" cy="446" r="15" style="fill:#ffffff;stroke:#000000;stroke-width:1" />
        <line x1="924" y1="446" x2="908" y2="446" stroke="#000000" stroke-width="1" marker-end="url(#arrowhead)" />
    </g>
    <g>
        <path d="M 1150,446 h 20 v 20" style="fill:#ffffff;stroke:#000000;stroke-width:1" />
        <path d="M 1170,466 h 10 l -10,10 l -10,-10 h 10" style="fill:#000000;stroke:#000000;stroke-width:1" />
    </g>
    <g>
        <rect x="546" y="436" width="40" height="20" style="fill:#ffffff;stroke:#000000;stroke-width:1" />
    </g>
    <g>
        <rect x="206" y="441" width="20" height="10" style="fill:#ffffff" />
        <line x1="206" y1="441" x2="226" y2="441" stroke="#000000" stroke-width="1" />
        <line x1="206" y1="451" x2="226" y2="451" stroke="#000000" stroke-width="1" />
    </g>
    <g>
        <rect x="665" y="212" width="36" height="12" style="fill:#ffffff" />
        <path d="M 665,216 C 669,224 673,224 677,216 C 681,224 685,224 689,216 C 693,224 697,224 701,216 " style="fill:#ffffff;stroke:#000000;stroke-width:1" />
    </g>
    <g>
        <rect x="795" y="666" width="10" height="20" style="fill:#ffffff" />
        <line x1="795" y1="666" x2="795" y2="686" stroke="#000000" stroke-width="1" />
        <line x1="805" y1="666" x2="805" y2="686" stroke="#000000" stroke-width="1" />
    </g>
</svg>