<?xml version="1.0"?>
<svg
    xmlns="http://www.w3.org/2000/svg"
    xmlns:xlink="http://www.w3.org/1999/xlink"
    xmlns:ev="http://www.w3.org/2001/xml-events"
    version="1.1"
    baseProfile="full"
    viewBox="186 186 760 754">
    <defs>
        <marker id="arrowhead" markerWidth="8" markerHeight="8" refX="0" refY="4" orient="auto">
        <polygon points="0 0, 4 4, 0 8" />
        </marker>
    </defs>
    <g>
        <g>
            <path fill="none" d="M 216 680 L 450 680" stroke="#000000" />
        </g>
        <g>
            <path fill="none" d="M 683 680 L 450 680" stroke="#000000" />
        </g>
        <g>
            <path fill="none" d="M 683 216 L 449 216" stroke="#000000" />
        </g>
        <g>
            <path fill="none" d="M 683 450 L 683 680" stroke="#000000" />
        </g>
        <g>
            <path fill="none" d="M 683 450 L 683 216" stroke="#000000" />
        </g>
        <g>
            <path fill="none" d="M 216 910 L 216 680" stroke="#000000" />
        </g>
        <g>
            <path fill="none" d="M 216 910 L 449 910" stroke="#000000" />
        </g>
        <g>
            <path fill="none" d="M 683 910 L 683 680" stroke="#000000" />
        </g>
        <g>
            <path fill="none" d="M 683 910 L 449 910" stroke="#000000" />
        </g>
        <g>
            <path fill="none" d="M 216 216 L 216 680" stroke="#000000" />
        </g>
        <g>
            <path fill="none" d="M 216 216 L 449 216" stroke="#000000" />
        </g>
        <g>
            <path fill="none" d="M 916 680 L 683 680" stroke="#000000" />
        </g>
        <g>
            <path fill="none" d="M 916 680 L 916 448" stroke="#000000" />
        </g>
        <g>
            <path fill="none" d="M 916 216 L 683 216" stroke="#000000" />
        </g>
        <g>
            <path fill="none" d="M 916 216 L 916 448" stroke="#000000" />
        </g>
    </g>
    <g>
        <circle cx="450" cy="680" r="18" style="fill:#ffffff;stroke:#000000;stroke-width:1" />
        <circle cx="450" cy="680" r="15" style="fill:#ffffff;stroke:#000000;stroke-width:1" />
        <line x1="442" y1="680" x2="458" y2="680" stroke="#000000" stroke-width="1" marker-end="url(#arrowhead)" />
    </g>
    <g>
        <rect x="429" y="900" width="40" height="20" style="fill:#ffffff;stroke:#000000;stroke-width:1" />
    </g>
    <g>
        <rect x="444" y="206" width="10" height="20" style="fill:#ffffff" />
        <line x1="444" y1="206" x2="444" y2="226" stroke="#000000" stroke-width="1" />
        <line x1="454" y1="206" x2="454" y2="226" stroke="#000000" stroke-width="1" />
    </g>
    <g>
        <rect x="906" y="443" width="20" height="10" style="fill:#ffffff" />
        <line x1="906" y1="443" x2="926" y2="443" stroke="#000000" stroke-width="1" />
        <line x1="906" y1="453" x2="926" y2="453" stroke="#000000" stroke-width="1" />
    </g>
</svg>